<?xml version="1.0" encoding="UTF-8" standalone="no"?>
<svg
   xmlns:dc="http://purl.org/dc/elements/1.1/"
   xmlns:cc="http://creativecommons.org/ns#"
   xmlns:rdf="http://www.w3.org/1999/02/22-rdf-syntax-ns#"
   xmlns:svg="http://www.w3.org/2000/svg"
   xmlns="http://www.w3.org/2000/svg"
   xmlns:sodipodi="http://sodipodi.sourceforge.net/DTD/sodipodi-0.dtd"
   xmlns:inkscape="http://www.inkscape.org/namespaces/inkscape"
   width="11.1136in"
   height="5.40401in"
   viewBox="0 0 800 389"
   version="1.1"
   id="svg3"
   sodipodi:docname="Signature.svg"
   inkscape:version="0.92.3 (2405546, 2018-03-11)">
  <metadata
     id="metadata9">
    <rdf:RDF>
      <cc:Work
         rdf:about="">
        <dc:format>image/svg+xml</dc:format>
        <dc:type
           rdf:resource="http://purl.org/dc/dcmitype/StillImage" />
      </cc:Work>
    </rdf:RDF>
  </metadata>
  <defs
     id="defs7" />
  <sodipodi:namedview
     pagecolor="#ffffff"
     bordercolor="#666666"
     borderopacity="1"
     objecttolerance="10"
     gridtolerance="10"
     guidetolerance="10"
     inkscape:pageopacity="0"
     inkscape:pageshadow="2"
     inkscape:window-width="1440"
     inkscape:window-height="825"
     id="namedview5"
     showgrid="false"
     inkscape:zoom="0.34586003"
     inkscape:cx="991.21583"
     inkscape:cy="155.31564"
     inkscape:window-x="-9"
     inkscape:window-y="-9"
     inkscape:window-maximized="1"
     inkscape:current-layer="svg3" />
  <path
     style="fill:none;stroke:#000000;stroke-width:6.14343548;stroke-linecap:butt;stroke-linejoin:miter;stroke-miterlimit:4;stroke-dasharray:none;stroke-opacity:1"
     d="m 156.35671,53.492969 10.96468,-38.376373 c 0,0 12.63275,16.446563 21.92935,17.54349 13.63923,1.609323 37.27991,-17.54349 37.27991,-17.54349 l -88.8139,286.178134 v 0 h 2.19294"
     id="path820"
     inkscape:connector-curvature="0"
     sodipodi:nodetypes="ccacccc" />
  <path
     style="fill:none;stroke:#000000;stroke-width:5.46083212;stroke-linecap:butt;stroke-linejoin:miter;stroke-miterlimit:4;stroke-dasharray:none;stroke-opacity:1"
     d="M 285.73992,14.020129 168.41785,222.34904 c 0,0 -18.27141,58.52951 2.19293,62.49866 7.0676,1.37079 8.77175,-19.73642 8.77175,-19.73642 0,0 12.77121,-23.44367 24.1223,-24.1223 12.99151,-0.77671 14.59263,21.39633 9.31998,30.70112 -5.20057,9.17759 -25.43544,16.81567 -30.70111,7.67527 -4.32224,-7.50276 8.33857,-21.84422 18.09172,-23.57407 8.73572,-1.5494 13.94353,16.67963 22.4776,14.25409 13.28641,-3.77625 5.00954,-41.7123 18.09172,-37.27991 32.31091,10.94728 -29.37706,150.57721 -24.67055,151.86081 l 27.95995,-125.54557 c 0,0 2.76668,-16.04185 9.31997,-20.28466 8.52935,-5.52217 4.88819,-2.14039 7.49347,-2.24268 7.14152,-0.28037 13.68142,4.76048 20.95961,4.51826 26.32466,-0.8761 -3.3014,42.93639 -10.90959,40.48665 -31.32915,-10.08756 -4.99979,-48.61983 19.80869,-43.28392 12.46074,2.68011 7.05393,5.63038 7.79113,14.69312 1.19885,14.73822 -19.52555,29.87159 3.41102,20.84902 7.962,-3.13203 11.09474,-2.99001 13.03601,-13.51771 1.37586,-7.46146 14.95064,-15.07922 6.73937,-19.91315 -1.97724,-1.16398 -11.75845,44.42437 6.37454,38.21128 8.39693,-2.87714 3.76961,-38.03726 17.0549,-40.13814 26.61117,-4.20816 28.83539,14.62366 25.45236,28.36861 -1.57651,6.40524 -12.29909,11.64559 -17.97308,8.28132 -2.30392,-1.36607 -6.20523,-2.04982 -8.24112,-3.66958 -2.03589,-1.61977 2.45559,-2.91694 -3.96426,-5.26253 -3.73758,-1.36557 -0.0246,-7.16827 -0.24864,-8.34345 -0.92966,-4.87924 1.03287,-12.65958 -2.60231,-12.40461 -4.14799,0.29093 9.85603,-6.33723 17.85943,-9.17633 0.43555,-0.1545 0.86134,-0.30682 1.27782,-0.45707 13.46063,-4.85551 20.7147,4.10141 21.96019,8.29039 5.94326,19.98926 -0.17331,39.45884 0.26936,25.82867 0.10727,-3.30295 9.72174,-14.86618 19.91379,-16.92707 4.34317,-0.87821 5.76649,-22.01536 4.80528,-18.17018 -1.67624,6.70547 -8.23026,40.32697 -2.16217,37.79431 11.35669,-4.74002 -0.78871,5.92353 4.89408,-2.36725 6.22683,-9.08451 -1.91944,-29.264 10.18399,-33.61983 4.6419,-1.67054 -2.30508,11.1722 -3.6392,20.83891 -0.87417,6.33406 2.65249,9.75598 6.47837,12.24334 5.30221,3.4472 7.06719,1.27442 11.54429,-0.49723 13.3009,-5.26334 4.96562,-36.09428 5.24293,-25.5672 1.5487,58.79116 29.65658,27.21305 30.30216,36.07187 0.49346,6.77141 2.49824,-13.65926 2.26568,-20.54528 -0.1554,-4.6013 1.26892,-7.70608 -2.43675,-13.59513 -1.87357,-2.97748 -13.46996,-10.99052 -18.19528,-2.50519 -2.82162,5.06684 -6.54362,16.43488 -3.41793,24.01206 4.96609,12.03857 20.53232,18.68625 33.82141,6.93791"
     id="path828"
     inkscape:connector-curvature="0"
     sodipodi:nodetypes="ccscssssasccsassssssssssszsssssssssssssssssasssc" />
  <path
     style="fill:none;stroke:#000000;stroke-width:5.46083212;stroke-linecap:butt;stroke-linejoin:miter;stroke-miterlimit:4;stroke-dasharray:none;stroke-opacity:1"
     d="m 417.36596,277.59041 c 0,0 7.53695,7.44386 6.20256,11.62979 -0.96535,3.02826 -5.82481,5.93524 -8.52851,4.26427 -1.97858,-1.22283 -1.04019,-4.89748 0,-6.97788 1.73367,-3.46733 9.30384,-6.97788 9.30384,-6.97788 v 0 0"
     id="path830"
     inkscape:connector-curvature="0"
     sodipodi:nodetypes="cassccc" />
  <path
     style="fill:none;stroke:#000000;stroke-width:5.46083212;stroke-linecap:butt;stroke-linejoin:miter;stroke-miterlimit:4;stroke-dasharray:none;stroke-opacity:1"
     d="m 306.97455,227.33853 13.27392,-2.4857 9.25884,-1.73384 v 0"
     id="path832"
     inkscape:connector-curvature="0"
     sodipodi:nodetypes="cccc"
     inkscape:transform-center-x="5.4823431"
     inkscape:transform-center-y="3.2894041" />
  <path
     style="fill:none;stroke:#000000;stroke-width:5.46083212;stroke-linecap:butt;stroke-linejoin:miter;stroke-miterlimit:4;stroke-dasharray:none;stroke-opacity:1"
     d="m 484.21074,268.95169 c 0,0 5.16207,11.93995 9.66394,5.9983 C 536.50251,218.68905 607.28178,10.028603 613.25781,14.928945 L 526.43812,247.03847 c 0,0 -6.18892,22.16838 1.55064,26.36087 14.65661,7.93947 43.41791,-24.81022 43.41791,-24.81022 v 0"
     id="path834"
     inkscape:connector-curvature="0"
     sodipodi:nodetypes="csccacc" />
  <path
     style="fill:none;stroke:#000000;stroke-width:5.46083212;stroke-linecap:butt;stroke-linejoin:miter;stroke-miterlimit:4;stroke-dasharray:none;stroke-opacity:1"
     d="m 518.73935,200.96791 45.50343,-4.93412"
     id="path819"
     inkscape:connector-curvature="0" />
</svg>
